HIERARCHY
ROOT mixamorig:Hips
{
	OFFSET 0.00 0.00 0.00
	CHANNELS 6 Xposition Yposition Zposition Zrotation Yrotation Xrotation
	JOINT mixamorig:Spine
	{
		OFFSET	0.0000	18.1814	-1.2657
		CHANNELS 3 Zrotation Yrotation Xrotation
		JOINT mixamorig:Spine1
		{
			OFFSET	0.0000	21.2116	-1.4766
			CHANNELS 3 Zrotation Yrotation Xrotation
			JOINT mixamorig:Spine2
			{
				OFFSET	0.0000	24.2418	-1.6876
				CHANNELS 3 Zrotation Yrotation Xrotation
				JOINT mixamorig:Neck
				{
					OFFSET	0.0000	27.2721	-1.8985
					CHANNELS 3 Zrotation Yrotation Xrotation
					JOINT mixamorig:Head
					{
						OFFSET	0.0000	19.2675	11.0567
						CHANNELS 3 Zrotation Yrotation Xrotation
						End Site
						{
							OFFSET 0.0000 24.3175 13.9547
						}
					}
				}
				JOINT mixamorig:LeftShoulder
				{
					OFFSET	11.1378	22.4970	-1.8453
					CHANNELS 3 Zrotation Yrotation Xrotation
					JOINT mixamorig:LeftArm
					{
						OFFSET	22.5443	-9.5607	0.1064
						CHANNELS 3 Zrotation Yrotation Xrotation
						JOINT mixamorig:LeftForeArm
						{
							OFFSET	36.6820	-29.7524	1.0803
							CHANNELS 3 Zrotation Yrotation Xrotation
							JOINT mixamorig:LeftHand
							{
								OFFSET	31.5369	-19.9944	12.1524
								CHANNELS 3 Zrotation Yrotation Xrotation
								JOINT mixamorig:LeftHandThumb1
								{
									OFFSET	4.9599	-0.9231	6.1931
									CHANNELS 3 Zrotation Yrotation Xrotation
									JOINT mixamorig:LeftHandThumb2
									{
										OFFSET	3.9680	-0.7385	4.9545
										CHANNELS 3 Zrotation Yrotation Xrotation
										JOINT mixamorig:LeftHandThumb3
										{
											OFFSET	2.6659	-0.6866	5.6569
											CHANNELS 3 Zrotation Yrotation Xrotation
											End Site
											{
												OFFSET 1.5547 -1.3984 5.5730
											}
										}
									}
								}
								JOINT mixamorig:LeftHandIndex1
								{
									OFFSET	18.1775	-8.9471	9.0866
									CHANNELS 3 Zrotation Yrotation Xrotation
									JOINT mixamorig:LeftHandIndex2
									{
										OFFSET	3.6487	-3.5375	2.7198
										CHANNELS 3 Zrotation Yrotation Xrotation
										JOINT mixamorig:LeftHandIndex3
										{
											OFFSET	3.2693	-3.0618	3.2608
											CHANNELS 3 Zrotation Yrotation Xrotation
											End Site
											{
												OFFSET 2.9406 -2.7563 3.0161
											}
										}
									}
								}
								JOINT mixamorig:LeftHandMiddle1
								{
									OFFSET	15.4929	-12.1332	8.4794
									CHANNELS 3 Zrotation Yrotation Xrotation
									JOINT mixamorig:LeftHandMiddle2
									{
										OFFSET	3.0430	-4.5934	2.5842
										CHANNELS 3 Zrotation Yrotation Xrotation
										JOINT mixamorig:LeftHandMiddle3
										{
											OFFSET	2.0309	-3.0389	4.3641
											CHANNELS 3 Zrotation Yrotation Xrotation
											End Site
											{
												OFFSET 1.4686 -2.1845 4.3427
											}
										}
									}
								}
								JOINT mixamorig:LeftHandRing1
								{
									OFFSET	10.9642	-15.9150	7.2800
									CHANNELS 3 Zrotation Yrotation Xrotation
									JOINT mixamorig:LeftHandRing2
									{
										OFFSET	2.1003	-3.8406	2.8862
										CHANNELS 3 Zrotation Yrotation Xrotation
										JOINT mixamorig:LeftHandRing3
										{
											OFFSET	1.2313	-2.4652	3.8370
											CHANNELS 3 Zrotation Yrotation Xrotation
											End Site
											{
												OFFSET 0.5948 -1.4067 4.1995
											}
										}
									}
								}
								JOINT mixamorig:LeftHandPinky1
								{
									OFFSET	5.7467	-17.6622	7.3864
									CHANNELS 3 Zrotation Yrotation Xrotation
									JOINT mixamorig:LeftHandPinky2
									{
										OFFSET	1.5275	-2.5984	2.2715
										CHANNELS 3 Zrotation Yrotation Xrotation
										JOINT mixamorig:LeftHandPinky3
										{
											OFFSET	0.5729	-0.9842	2.8271
											CHANNELS 3 Zrotation Yrotation Xrotation
											End Site
											{
												OFFSET 0.5189 -0.8111 2.1957
											}
										}
									}
								}
							}
						}
					}
				}
				JOINT mixamorig:RightShoulder
				{
					OFFSET	-11.1378	22.4970	-1.9517
					CHANNELS 3 Zrotation Yrotation Xrotation
					JOINT mixamorig:RightArm
					{
						OFFSET	-22.5443	-9.5607	-0.1064
						CHANNELS 3 Zrotation Yrotation Xrotation
						JOINT mixamorig:RightForeArm
						{
							OFFSET	-36.6819	-29.7524	1.4161
							CHANNELS 3 Zrotation Yrotation Xrotation
							JOINT mixamorig:RightHand
							{
								OFFSET	-31.5368	-19.9944	11.8595
								CHANNELS 3 Zrotation Yrotation Xrotation
								JOINT mixamorig:RightHandThumb1
								{
									OFFSET	-5.4858	-0.8573	6.4585
									CHANNELS 3 Zrotation Yrotation Xrotation
									JOINT mixamorig:RightHandThumb2
									{
										OFFSET	-4.3886	-0.6858	5.1667
										CHANNELS 3 Zrotation Yrotation Xrotation
										JOINT mixamorig:RightHandThumb3
										{
											OFFSET	-2.5483	-0.8355	5.5939
											CHANNELS 3 Zrotation Yrotation Xrotation
											End Site
											{
												OFFSET -1.9965 -1.6626 4.6620
											}
										}
									}
								}
								JOINT mixamorig:RightHandIndex1
								{
									OFFSET	-18.7763	-8.7751	9.4831
									CHANNELS 3 Zrotation Yrotation Xrotation
									JOINT mixamorig:RightHandIndex2
									{
										OFFSET	-3.8956	-3.7655	2.7666
										CHANNELS 3 Zrotation Yrotation Xrotation
										JOINT mixamorig:RightHandIndex3
										{
											OFFSET	-3.3474	-3.0775	3.2109
											CHANNELS 3 Zrotation Yrotation Xrotation
											End Site
											{
												OFFSET -2.7188 -2.2708 3.6376
											}
										}
									}
								}
								JOINT mixamorig:RightHandMiddle1
								{
									OFFSET	-16.7859	-12.8065	8.6103
									CHANNELS 3 Zrotation Yrotation Xrotation
									JOINT mixamorig:RightHandMiddle2
									{
										OFFSET	-2.6877	-4.2765	3.1425
										CHANNELS 3 Zrotation Yrotation Xrotation
										JOINT mixamorig:RightHandMiddle3
										{
											OFFSET	-1.7777	-2.8711	4.2706
											CHANNELS 3 Zrotation Yrotation Xrotation
											End Site
											{
												OFFSET -1.2846 -2.0944 4.2752
											}
										}
									}
								}
								JOINT mixamorig:RightHandRing1
								{
									OFFSET	-11.3444	-15.2451	7.6371
									CHANNELS 3 Zrotation Yrotation Xrotation
									JOINT mixamorig:RightHandRing2
									{
										OFFSET	-2.2150	-4.2759	2.4721
										CHANNELS 3 Zrotation Yrotation Xrotation
										JOINT mixamorig:RightHandRing3
										{
											OFFSET	-1.2674	-2.7806	3.9516
											CHANNELS 3 Zrotation Yrotation Xrotation
											End Site
											{
												OFFSET -0.4188 -1.3418 4.3716
											}
										}
									}
								}
								JOINT mixamorig:RightHandPinky1
								{
									OFFSET	-6.2920	-16.6807	7.4774
									CHANNELS 3 Zrotation Yrotation Xrotation
									JOINT mixamorig:RightHandPinky2
									{
										OFFSET	-1.6010	-3.2202	2.1243
										CHANNELS 3 Zrotation Yrotation Xrotation
										JOINT mixamorig:RightHandPinky3
										{
											OFFSET	-0.5887	-1.2939	3.0352
											CHANNELS 3 Zrotation Yrotation Xrotation
											End Site
											{
												OFFSET -0.1025 -0.3920 3.0221
											}
										}
									}
								}
							}
						}
					}
				}
			}
		}
	}
	JOINT mixamorig:LeftUpLeg
	{
		OFFSET	19.3175	-10.1118	0.1558
		CHANNELS 3 Zrotation Yrotation Xrotation
		JOINT mixamorig:LeftLeg
		{
			OFFSET	10.1505	-80.5711	-4.9869
			CHANNELS 3 Zrotation Yrotation Xrotation
			JOINT mixamorig:LeftFoot
			{
				OFFSET	12.8208	-69.2194	-9.7860
				CHANNELS 3 Zrotation Yrotation Xrotation
				JOINT mixamorig:LeftToeBase
				{
					OFFSET	10.0534	-21.1412	23.1616
					CHANNELS 3 Zrotation Yrotation Xrotation
					End Site
					{
						OFFSET 3.9852 -0.2580 11.6899
					}
				}
			}
		}
	}
	JOINT mixamorig:RightUpLeg
	{
		OFFSET	-19.3175	-10.1118	0.1978
		CHANNELS 3 Zrotation Yrotation Xrotation
		JOINT mixamorig:RightLeg
		{
			OFFSET	-10.1506	-80.5711	-4.2453
			CHANNELS 3 Zrotation Yrotation Xrotation
			JOINT mixamorig:RightFoot
			{
				OFFSET	-12.8204	-69.2174	-10.6194
				CHANNELS 3 Zrotation Yrotation Xrotation
				JOINT mixamorig:RightToeBase
				{
					OFFSET	-10.0541	-21.1451	23.8957
					CHANNELS 3 Zrotation Yrotation Xrotation
					End Site
					{
						OFFSET -3.9855 -0.2599 11.9614
					}
				}
			}
		}
	}
}
MOTION
Frames: 4
Frame Time: 0.0333333
-9.0903 101.5549 146.7883 20.5200 -3.3196 87.9510 0.1141 -0.5641 4.9200 -5.1920 -5.6073 8.2952 -4.3412 -5.4307 7.8852 -1.5298 -2.5455 -22.4528 -1.7654 -17.5394 -34.2852 -27.3231 -51.1904 28.9122 56.8995 13.2430 -28.8518 3.7761 -27.1483 -13.6920 104.1008 -30.8404 75.8546 -2.1790 19.6893 2.5740 -0.6950 6.9242 5.1633 1.6345 -3.4009 26.5178 1.5801 -7.1704 -1.1377 -6.1215 -4.2180 -6.4656 8.0216 15.0187 16.7522 14.2499 5.5629 7.8545 -11.9934 -20.7306 -19.1986 10.4011 23.0837 30.5723 10.7686 9.1247 10.1870 13.1487 -54.7960 -65.6178 12.3985 -48.7413 -57.0831 5.6957 6.5494 8.4474 -0.3657 9.4193 20.1513 -1.0814 -4.9293 -3.9657 -27.2113 7.5266 -2.0569 -36.8757 -30.1562 -60.3904 7.0264 -7.3159 -24.8482 -86.8468 32.8100 38.4693 -2.6845 -9.4446 -2.5027 -9.5435 -27.2551 10.6956 -13.5841 -0.0721 -13.8679 14.1280 1.4573 8.4105 3.4077 18.2857 -12.2851 11.5644 13.4984 3.0319 -6.0164 -13.9837 54.4442 4.1408 4.6823 -0.5327 1.7693 3.4123 -1.0452 -10.0609 -19.8419 26.4734 -0.9685 -7.4337 15.5315 2.9708 4.8255 0.0408 0.2260 20.2802 16.9440 -0.1828 -8.5232 22.0981 0.4368 -1.6579 7.8090 -0.5400 7.7012 -76.7837 24.3705 23.0595 80.4991 -5.3578 4.7067 28.1979 0.5346 0.8275 6.7178 -1.3470 -55.9534 -92.9156 -19.9163 -16.5762 89.0520 -1.2319 -2.0720 -10.1858 9.5526 4.3590 -56.2872 
-12.2230 99.3729 159.2200 24.9145 -3.2865 88.1406 -1.7597 -2.2161 5.1280 -6.4314 -7.2183 8.7008 -5.4712 -7.0525 8.3051 0.5475 -2.7482 -21.2877 1.7359 -18.3455 -36.5063 -23.2792 -46.2269 26.8317 56.0746 9.7156 -27.5032 2.4426 -31.6910 -9.3940 96.8969 -26.1243 72.3034 -3.8436 20.0263 3.4350 2.5250 13.7888 7.7086 0.2780 -8.4841 23.3345 2.5018 1.8521 5.2980 -5.0517 2.3849 -1.9038 7.1412 7.8039 11.4370 15.1887 7.1192 9.7435 -10.0487 -1.6434 1.0182 9.2809 22.0458 28.7430 16.0049 15.8658 19.4046 27.0098 -58.9919 -87.2952 1.9638 -38.3729 -36.8910 10.5497 13.0956 16.4256 1.5344 12.5130 23.8189 -0.8066 -2.0596 -1.3893 -28.7215 13.0273 -4.7248 -40.9152 -30.6697 -58.9506 4.1809 -12.5488 -14.1804 -83.0894 33.9576 48.7832 -2.9727 -8.4938 -2.8141 -8.6715 -27.1567 10.0090 -10.6037 -3.1840 -13.7083 10.5309 -3.1262 6.9145 3.0647 21.9199 -15.1608 11.3649 23.5195 -2.3313 -8.0687 -17.5136 50.6972 4.9251 7.3733 -3.4354 2.4186 6.4567 -4.2047 -13.8200 -19.6582 25.4609 1.3210 -3.9313 10.0884 3.7710 9.0888 -4.8221 -3.0069 15.0341 16.2367 1.3846 -6.0412 18.6869 2.0622 9.1550 -3.9041 -1.8236 11.8661 -85.7748 23.5950 21.5197 91.8987 -1.7773 1.1200 14.0417 2.1984 1.2354 -2.6828 -4.1285 -57.2712 -84.9444 -22.0908 -16.9540 83.9396 -4.7546 -2.4917 -2.0291 11.8465 8.7442 -62.1105 
-15.1805 97.7449 171.5130 29.0947 -3.2922 88.3511 -3.7612 -3.9411 5.3838 -7.6553 -8.8182 9.2082 -6.5949 -8.6688 8.8319 2.5057 -2.8875 -20.1810 5.0600 -18.3534 -38.3462 -16.6019 -38.7416 23.5606 54.8536 7.5455 -22.7958 5.4560 -39.2063 -15.6154 82.3423 -26.1028 59.2702 -5.3777 20.4032 4.2427 5.7271 19.5876 10.9998 -1.5142 -20.7668 15.4825 5.1535 11.5591 12.8003 -3.5912 8.3844 2.4724 7.1044 1.2363 6.5165 16.9332 9.7412 13.3099 -3.3909 14.9728 20.6665 6.4603 18.9773 23.8832 25.3215 23.2452 34.0298 29.4414 -59.4645 -91.7425 -3.5017 -21.8286 -16.6566 18.4353 20.2292 28.2293 3.5215 15.2996 27.3959 -0.4048 0.8042 1.2063 -27.9914 18.9030 -6.1871 -27.7927 -21.0510 -52.8361 -20.0468 -11.4895 -25.5277 -66.3461 39.3075 53.6784 -3.2102 -7.7201 -3.0712 -5.7328 -25.6574 9.0358 -8.9805 -4.8286 -14.3236 5.4145 -2.3203 0.3193 1.1840 30.8996 -22.9403 5.1285 48.1138 -19.5753 -11.8704 -16.2687 36.5758 6.0138 9.9072 -6.1680 3.3554 16.4378 -14.2643 -16.3356 -17.1817 19.7157 7.1368 13.2904 -11.7205 3.7673 23.1340 -20.9488 -9.0184 2.8159 13.3579 4.7709 0.7845 10.1746 -6.9224 38.3295 -41.3364 -7.9011 17.7292 -95.3201 16.6473 22.0278 98.9265 7.3009 -0.5069 -4.1492 3.7922 2.2901 -16.0647 -7.0803 -58.3962 -76.0572 -18.4290 -17.8909 77.8963 -4.8389 -2.3955 2.6043 14.2866 12.1423 -58.9820 
-17.6770 96.3708 183.5027 32.3733 -3.3038 88.4888 -5.5836 -5.4661 5.6527 -8.6392 -10.1229 9.7070 -7.5308 -9.9975 9.3361 3.5853 -2.8778 -19.6703 6.8875 -18.0268 -38.3005 -6.6858 -29.4495 18.4371 54.2927 12.1128 -14.1632 27.7221 -43.6463 -42.0995 57.6976 -31.6469 36.1884 -5.3042 20.3701 4.2475 5.0200 11.8821 14.5765 1.9022 -35.2699 1.4092 -0.3711 1.1235 4.0568 -3.7276 8.0486 2.8435 7.5189 4.0351 8.0267 12.3995 1.0307 -1.2330 -3.1122 14.6364 20.9254 1.7435 11.4844 14.2409 23.0808 21.7137 31.8314 -0.7596 -43.8007 -41.9733 -3.7933 -20.8269 -15.5632 11.3369 10.7871 10.9569 3.5177 15.3028 27.3945 0.1102 3.7737 3.9624 -25.9226 22.6313 -6.0370 -16.8846 -17.6821 -49.1641 -28.6135 -7.5939 -35.4520 -58.7456 41.3293 57.0828 -3.3502 -7.2691 -3.2225 -0.9675 -23.2147 9.8858 -8.2845 -5.5262 -15.0837 0.7017 -0.6732 -8.0817 -2.9545 40.3627 -32.9951 -31.6019 69.4640 -66.3936 -13.9885 -15.1967 18.4268 6.9812 11.3704 -7.5908 2.1846 27.9822 -26.2282 -17.8164 -14.8107 12.5292 5.1645 34.8737 -38.6559 -2.0561 38.5070 -42.2924 -15.5146 -9.8023 10.5954 7.3294 8.8105 1.1482 -51.9363 51.2794 -111.9158 -15.5402 17.9631 -106.6075 8.5390 23.2046 103.1488 11.6838 1.2940 -12.1709 4.7328 3.6655 -24.0929 -10.1540 -59.6353 -69.9572 -10.6875 -17.4998 75.6798 -3.8835 -2.3562 7.3363 20.3702 15.2450 -42.4478 
